Coordinates
version=1
nRows=12
nColumns=33
inDegrees=yes

Units are S.I. units (second, meters, Newtons, ...)
Angles are in degrees.

endheader
time	ground_thorax_rot_x	ground_thorax_rot_y	ground_thorax_rot_z	ground_thorax_tx	ground_thorax_ty	ground_thorax_tz	clav_prot_r	clav_elev_r	scapula_abduction_r	scapula_elevation_r	scapula_upward_rot_r	scapula_winging_r	shoulder_elv_r	plane_of_elev_r	axial_rot_r	elbow_flexion_r	pro_sup_r	wrist_flex_r	wrist_dev_r	clav_prot_l	clav_elev_l	scapula_abduction_l	scapula_elevation_l	scapula_upward_rot_l	scapula_winging_l	shoulder_elv_l	plane_of_elev_l	axial_rot_l	elbow_flexion_l	pro_sup_l	wrist_flex_l	wrist_dev_l
      1.84000000	     22.27951289	     37.30627545	      5.48274712	      0.01819858	      1.00921899	     -0.04475999	    -20.30270717	     30.73670995	    -18.82331462	     21.78328993	     45.00000000	    -11.59350534	      3.33414383	    -90.00000000	     22.85439233	     80.44801441	     -1.67772917	     35.49414276	    -17.21039287	     18.38399105	     -7.90265177	    -45.00000000	      1.92512275	      7.14672820	     20.23541006	     22.56243482	    -51.33395429	    -31.41944205	     67.46184053	     24.22605828	      3.08414765	    -24.99999983
      1.85000000	     22.31008811	     37.47730443	      5.55932452	      0.01804566	      1.00900504	     -0.04515320	    -20.17144639	     30.74815921	    -18.56252092	     21.80939112	     45.00000000	    -11.54682646	      3.64150166	    -90.00000000	     22.54983477	     81.01847669	     -2.56106072	     34.61522624	    -16.16610465	     18.48093749	     -7.90500105	    -45.00000000	      1.81956807	      6.76816916	     20.26532858	     22.89594626	    -50.58294327	    -31.50760336	     67.83357930	     23.63446788	      3.98543796	    -24.99999983
      1.86000000	     22.20846922	     37.77153864	      5.74357571	      0.01790357	      1.00918976	     -0.04540622	    -20.12038784	     30.68704575	    -18.37483269	     21.76243307	     45.00000000	    -11.55174266	      3.90856461	    -90.00000000	     22.29106258	     81.56430451	     -4.13111105	     33.50697820	    -14.95540837	     18.66663234	     -7.94164095	    -45.00000000	      1.64078066	      6.03867930	     20.30837452	     23.56576722	    -49.51707466	    -31.73936060	     67.97587508	     22.81800072	      5.19242940	    -24.96714146
      1.87000000	     22.10087946	     37.90623853	      5.52763588	      0.01791342	      1.00942036	     -0.04575501	    -20.15539433	     30.26154130	    -17.90321018	     21.39086390	     45.00000000	    -11.70158115	      4.20532430	    -90.00000000	     22.00461341	     81.92794699	     -4.82268081	     32.78259253	    -14.44595567	     18.68447502	     -7.96352938	    -45.00000000	      1.63858821	      5.97141792	     20.30311521	     23.97955607	    -48.87666605	    -31.69068936	     68.37238355	     22.51368529	      5.63134149	    -24.55790546
      1.88000000	     22.00999411	     38.18309789	      5.65487027	      0.01778169	      1.00931317	     -0.04622213	    -20.06418425	     30.16861442	    -17.59590581	     21.32134856	     45.00000000	    -11.70373145	      4.50489024	    -90.00000000	     21.72583504	     82.47010296	     -5.98180987	     31.30485403	    -13.36236801	     18.76327305	     -7.88478758	    -45.00000000	      1.48118315	      5.63995673	     20.36464859	     24.45253979	    -47.96554498	    -32.07768451	     68.74408365	     22.10003722	      6.75963773	    -23.78242354
      1.89000000	     21.91491323	     38.38530203	      5.51626392	      0.01773443	      1.00960182	     -0.04654766	    -20.07584088	     29.76727816	    -17.12372459	     20.97455738	     45.00000000	    -11.83570187	      4.83850514	    -90.00000000	     21.42319637	     82.78667059	     -6.97505485	     30.41341108	    -12.55600821	     18.87937617	     -8.02533503	    -45.00000000	      1.46382567	      5.19530988	     20.33552978	     25.08891330	    -47.01249226	    -32.09441052	     69.13432314	     21.60473860	      7.51374640	    -23.18360558
      1.90000000	     21.87137924	     38.79962988	      5.64290235	      0.01761685	      1.00941201	     -0.04710557	    -19.98648288	     29.70180056	    -16.85649406	     20.92842044	     45.00000000	    -11.82987376	      5.13274109	    -90.00000000	     21.17659425	     83.15041460	     -8.33810336	     29.09622170	    -11.53019292	     19.04367277	     -8.01993814	    -45.00000000	      1.26210558	      4.51573181	     20.38866329	     25.74226033	    -45.70308496	    -32.56929766	     69.48522240	     20.99581780	      8.73134620	    -22.34492605
      1.91000000	     21.79148773	     39.03551345	      5.46537401	      0.01760081	      1.00969820	     -0.04751323	    -19.98612318	     29.24103115	    -16.30803996	     20.53290581	     45.00000000	    -11.97393296	      5.51911067	    -90.00000000	     20.93737483	     83.28511346	     -9.38103992	     28.31351361	    -10.82466008	     19.21274617	     -8.21094552	    -45.00000000	      1.21686349	      3.84634422	     20.35056432	     26.47842801	    -44.48856456	    -32.57881988	     69.85967632	     20.39307369	      9.44165393	    -21.72781468
      1.92000000	     21.80226776	     39.52875414	      5.66743051	      0.01749398	      1.00946710	     -0.04805376	    -19.88669254	     29.30209974	    -16.17370623	     20.59630906	     45.00000000	    -11.92278087	      6.00156135	    -89.85164611	     20.87437723	     83.45943396	    -10.54046139	     27.10836887	     -9.99426455	     19.38014297	     -8.26821515	    -45.00000000	      1.05477178	      3.14368211	     20.37598957	     27.02710118	    -43.06640476	    -33.09299884	     70.00191281	     19.84178151	     10.59126094	    -20.88769656
      1.93000000	     21.78288885	     39.75419164	      5.47263144	      0.01745445	      1.00919532	     -0.04822989	    -19.87098678	     29.32562543	    -16.16526554	     20.61945524	     45.00000000	    -11.92235475	      7.16854207	    -88.92483028	     21.57952037	     83.46864983	    -11.93300759	     26.12720936	     -9.08923671	     19.69406394	     -8.50198739	    -45.00000000	      0.84402188	      1.82138900	     20.38178373	     28.10731016	    -41.25155069	    -33.11900151	     70.48515747	     18.89900813	     11.64737837	    -19.94808902
      1.94000000	     23.06695166	     44.98103513	      0.19292276	      0.02501441	      1.02150714	     -0.05275690	    -32.46176101	     16.24638082	    -27.55826470	      8.66131069	     45.00000000	    -19.15903555	    100.56261601	    -68.13609895	    115.83547035	     89.76459467	    -12.63846799	     23.62729857	    -11.04492548	     20.86350182	    -12.63275322	    -45.00000000	      2.78902785	     -2.51929555	     18.67876554	     36.46051922	    -33.78271293	    -37.21286892	     71.22384413	     17.55133138	     13.35371621	    -17.86294706
      1.95000000	     22.78105265	     45.26839165	      0.19864622	      0.02500968	      1.02149950	     -0.05376500	    -32.33664142	     15.79127784	    -27.08977274	      8.32227610	     45.00000000	    -19.04782362	    100.14695638	    -68.23919828	    114.76699147	     89.43506154	    -13.98776918	     22.77227863	     -9.16165915	     20.79930732	    -12.25583954	    -45.00000000	      2.54576590	     -2.33589226	     18.85860579	     36.27146505	    -32.65038633	    -37.29122709	     70.78595552	     16.83065736	     14.02560538	    -17.84593604
